<svg viewBox="0 0 50 36" fill="none" xmlns="http://www.w3.org/2000/svg">
<path d="M14.544 0C15.9846 0 17.3159 0.125373 18.5378 0.501491C19.7566 0.752236 20.7597 1.27522 21.6504 1.90208C22.5441 2.53253 23.2035 3.42805 23.6535 4.57789C24.091 5.72416 24.3285 7.12475 24.3285 8.65071C24.3285 10.4274 23.9973 11.9534 23.216 13.0996C22.5441 14.2459 21.4472 15.2704 20.1003 16.0262C21.9941 16.6566 23.4348 17.8029 24.3129 19.3289C25.191 20.8548 25.7536 22.7569 25.7536 24.9277C25.7536 26.7044 25.4254 28.2303 24.8629 29.5056C24.3018 30.7891 23.4598 31.8839 22.4191 32.6828C21.4191 33.453 20.1972 34.0799 18.8659 34.4596C17.5619 34.8543 16.2208 35.066 14.8721 35.09L0 35.1151V0H14.544ZM13.6534 14.2495C14.8721 14.2495 15.8721 13.8734 16.644 13.2286C17.4128 12.5838 17.7534 11.4483 17.7534 10.0513C17.7534 9.27757 17.644 8.52534 17.4253 8.02026C17.1885 7.50837 16.845 7.07153 16.4253 6.74863C15.9719 6.46529 15.4874 6.25324 14.9846 6.11818C14.4346 5.99281 13.8721 5.99281 13.2127 5.99281H6.78136V14.2674C6.78136 14.2495 13.6534 14.2495 13.6534 14.2495ZM13.9815 29.2691C14.6534 29.2691 15.3128 29.1438 15.8753 29.0184C16.4253 28.893 16.9878 28.6387 17.4253 28.2447C17.8628 27.8506 18.2066 27.4745 18.5378 26.8477C18.7566 26.2172 18.9753 25.4471 18.9753 24.5515C18.9753 22.7748 18.5378 21.4996 17.644 20.6041C16.7534 19.8339 15.5315 19.4578 14.0909 19.4578H6.78136V29.2512H13.9846L13.9815 29.2691ZM35.4131 29.1438C36.3069 30.1647 37.635 30.6697 39.4069 30.6697C40.6257 30.6697 41.7382 30.29 42.632 29.6453C43.5226 28.8751 44.0695 28.1193 44.2882 27.3527H49.7258C48.8321 30.4011 47.5008 32.5718 45.732 33.9724C43.9632 35.244 41.8476 35.9999 39.2944 35.9999C37.6618 36.0082 36.0426 35.6617 34.5225 34.979C33.1544 34.396 31.9336 33.4336 30.9693 32.1778C29.9406 31.0067 29.1769 29.5656 28.7442 27.9796C28.1973 26.3282 27.963 24.5515 27.963 22.5062C27.963 20.6041 28.1817 18.8095 28.7442 17.1581C29.3067 15.5104 30.0755 14.1062 31.0786 12.8346C32.0787 11.6883 33.3006 10.6638 34.6318 10.0334C36.1162 9.35594 37.6998 9.00944 39.2975 9.0125C41.1913 9.0125 42.8507 9.38862 44.2914 10.2841C45.7289 11.1797 46.8445 12.1898 47.7352 13.7158C48.6258 15.1128 49.2852 16.7641 49.7383 18.5444C49.9571 20.3211 50.0665 22.1121 49.9571 24.1432H33.8631C33.8631 26.2208 34.5193 28.1193 35.4131 29.1438ZM42.4132 15.7755C41.6319 14.8799 40.4069 14.3749 38.9663 14.3749C37.9663 14.3749 37.1975 14.6256 36.5256 15.0053C35.8537 15.3814 35.4131 15.9008 34.9756 16.4023C34.5671 16.894 34.2952 17.5136 34.1943 18.1826C34.0818 18.8095 33.9756 19.3289 33.9756 19.8304H43.9632C43.7445 17.9462 43.1851 16.671 42.4132 15.7755ZM32.6412 2.42148H45.0726V5.84953H32.6412V2.42148Z" fill="white"/>
</svg>
