<svg viewBox="0 0 42 38" fill="none" xmlns="http://www.w3.org/2000/svg">
<path d="M21 0C18.2422 0 15.5115 0.503651 12.9636 1.4822C10.4158 2.46074 8.10079 3.89502 6.15076 5.70313C2.21249 9.35479 0 14.3075 0 19.4717C0 28.0782 6.027 35.3801 14.364 37.9698C15.414 38.1256 15.75 37.522 15.75 36.9963V33.7055C9.933 34.8738 8.694 31.0963 8.694 31.0963C7.728 28.8376 6.363 28.234 6.363 28.234C4.452 27.0267 6.51 27.0657 6.51 27.0657C8.61 27.202 9.723 29.0713 9.723 29.0713C11.55 32.031 14.637 31.1547 15.834 30.6874C16.023 29.4218 16.569 28.565 17.157 28.0782C12.495 27.5914 7.602 25.9168 7.602 18.4981C7.602 16.3368 8.4 14.6038 9.765 13.2213C9.555 12.7345 8.82 10.7094 9.975 8.08076C9.975 8.08076 11.739 7.55502 15.75 10.0669C17.409 9.6385 19.215 9.42431 21 9.42431C22.785 9.42431 24.591 9.6385 26.25 10.0669C30.261 7.55502 32.025 8.08076 32.025 8.08076C33.18 10.7094 32.445 12.7345 32.235 13.2213C33.6 14.6038 34.398 16.3368 34.398 18.4981C34.398 25.9363 29.484 27.5719 24.801 28.0587C25.557 28.6624 26.25 29.8501 26.25 31.661V36.9963C26.25 37.522 26.586 38.1451 27.657 37.9698C35.994 35.3606 42 28.0782 42 19.4717C42 16.9147 41.4568 14.3826 40.4015 12.0202C39.3461 9.65779 37.7993 7.51125 35.8492 5.70313C33.8992 3.89502 31.5842 2.46074 29.0364 1.4822C26.4885 0.503651 23.7578 0 21 0Z" fill="white"/>
</svg>
