<svg viewBox="0 0 40 38" fill="none" xmlns="http://www.w3.org/2000/svg">
<path d="M8.45833 4.41655C8.45778 5.52162 8.01826 6.58121 7.23647 7.36222C6.45468 8.14323 5.39465 8.58169 4.28958 8.58114C3.18451 8.58058 2.12493 8.14107 1.34392 7.35927C0.562905 6.57748 0.124448 5.51746 0.125001 4.41239C0.125553 3.30732 0.56507 2.24773 1.34686 1.46672C2.12865 0.685707 3.18868 0.247251 4.29375 0.247803C5.39882 0.248356 6.45841 0.687872 7.23942 1.46966C8.02043 2.25146 8.45889 3.31148 8.45833 4.41655ZM8.58333 11.6666H0.25V37.7499H8.58333V11.6666ZM21.75 11.6666H13.4583V37.7499H21.6667V24.0624C21.6667 16.4374 31.6042 15.7291 31.6042 24.0624V37.7499H39.8333V21.2291C39.8333 8.37489 25.125 8.85405 21.6667 15.1666L21.75 11.6666Z" fill="white"/>
</svg>
