<?xml version="1.0" encoding="UTF-8"?>
<svg id="Camada_1" data-name="Camada 1" xmlns="http://www.w3.org/2000/svg" viewBox="0 0 117.25 29.21">
  <defs>
    <style>
      .cls-1 {
        fill: #fff;
      }
    </style>
  </defs>
  <path class="cls-1" d="M117.25,18.54v10.67h-6.67v-9.46H22.59c.18-.4,.33-.76,.5-1.12,.02-.05,.13-.08,.19-.09,.11-.01,.22,0,.33,0H116.75c.17,0,.33,0,.5-.01Z"/>
  <path class="cls-1" d="M84.32,.99c-.56-.32-1.19-.53-1.81-.71-.54-.15-1.11-.19-1.67-.28h-2.27c-.52,.07-1.03,.12-1.55,.2-1.45,.23-2.84,.61-4.08,1.44-.6,.41-1.06,.93-1.35,1.61-1.81,4.14-3.62,8.27-5.44,12.41-.05,.11-.09,.22-.14,.35,1.7,0,3.34,0,4.98-.01,.1,0,.25-.16,.3-.27,.77-1.73,1.55-3.46,2.28-5.22,.21-.5,.45-.71,1.01-.67,.75,.06,1.5,.02,2.31,.02-.91,2.07-1.79,4.09-2.69,6.15,1.69,0,3.32,0,4.94-.01,.1,0,.24-.14,.28-.25,1.85-4.2,3.7-8.41,5.54-12.62,.4-.91,.22-1.64-.64-2.14Zm-4.42,2c-.51,1.19-1.04,2.38-1.56,3.56-.16,.36-.3,.71-.47,1.06-.04,.09-.17,.18-.26,.18-.92,.01-1.84,0-2.83,0,.25-.57,.47-1.08,.7-1.6,.45-1.04,.92-2.06,1.36-3.11,.29-.7,.82-1.03,1.53-1.1,.32-.03,.64-.03,.96,0,.64,.07,.83,.4,.58,.99Z"/>
  <path class="cls-1" d="M19.96,.46c-.05,.13-.08,.22-.12,.32-2.19,4.99-4.38,9.98-6.57,14.97-.06,.14-.11,.27-.32,.26-1.59-.01-3.18,0-4.77,0-.03,0-.06-.01-.13-.03,1.08-2.47,2.16-4.92,3.25-7.41-.12-.01-.2-.03-.28-.03-.75,0-1.49,.02-2.23-.01-.3-.01-.42,.1-.53,.36-.98,2.27-1.99,4.53-2.97,6.8-.11,.24-.22,.32-.49,.32-1.6-.01-3.2,0-4.8,0v-.07c.53-1.19,1.07-2.39,1.6-3.58C3.29,8.5,4.99,4.63,6.68,.77c.11-.24,.23-.32,.49-.31,1.58,.01,3.16,0,4.8,0-.87,1.99-1.72,3.94-2.6,5.93,.97,0,1.87,0,2.78-.01,.08,0,.19-.16,.23-.27,.79-1.79,1.58-3.57,2.35-5.37,.09-.22,.2-.29,.44-.29,1.58,.01,3.16,0,4.79,0Z"/>
  <path class="cls-1" d="M47.51,.99c-.69-.23-1.42-.41-2.14-.43-2.74-.08-5.49-.09-8.26-.12-2.29,5.21-4.56,10.38-6.83,15.57,.1,0,.15,.01,.21,.01,2.29,0,4.58,.01,6.87-.01,1.38-.01,2.75-.18,4.07-.59,1.86-.58,3.25-1.65,3.99-3.53,.52-1.34,1.15-2.65,1.73-3.97,.57-1.3,1.15-2.6,1.7-3.9,.61-1.47,.17-2.51-1.33-3.02Zm-3.55,2.42c-1.4,3.19-2.8,6.38-4.2,9.57-.21,.48-.57,.74-1.05,.9-.79,.26-1.6,.22-2.46,.22,.63-1.42,1.22-2.78,1.82-4.14,1.08-2.47,2.17-4.94,3.25-7.41,.09-.21,.2-.31,.44-.29,.57,.06,1.16,.05,1.72,.15,.61,.12,.74,.43,.49,1Z"/>
  <path class="cls-1" d="M105.33,.56c-.7,.68-1.4,1.36-2.1,2.05-1.46,1.45-2.9,2.91-4.36,4.36-.16,.16-.21,.31-.19,.53,.16,2.77,.3,5.55,.45,8.32,0,.05,0,.1,0,.17h-5.55c-.04-2.55-.09-5.09-.13-7.64-.02,0-.04,0-.07-.01-.14,.31-.27,.62-.41,.93-.94,2.14-1.89,4.29-2.82,6.43-.11,.24-.23,.31-.49,.31-1.58-.01-3.16,0-4.77,0,.04-.12,.07-.21,.11-.29,2.19-5,4.39-10,6.59-14.99,.05-.11,.19-.24,.28-.25,1.63-.02,3.27-.01,4.97-.01-.99,2.25-1.96,4.47-2.93,6.69,.03,.02,.05,.05,.08,.07,.08-.1,.15-.2,.23-.29,2.03-2.07,4.06-4.14,6.08-6.22,.18-.18,.36-.25,.61-.25,1.35,.01,2.69,0,4.03,0h.33s.04,.06,.06,.1Z"/>
  <path class="cls-1" d="M115.98,.46c-.53,1.2-1.03,2.33-1.52,3.47-1.72,3.91-3.43,7.82-5.14,11.73-.12,.26-.24,.35-.53,.35-1.46-.02-2.91,0-4.37,0h-.4c.18-.42,.34-.8,.51-1.17,2.06-4.69,4.12-9.38,6.18-14.08,.1-.23,.21-.31,.46-.31,1.49,.01,2.98,0,4.47,0h.35Z"/>
  <path class="cls-1" d="M31.11,.46c-.09,.22-.16,.39-.24,.56-2.15,4.9-4.3,9.79-6.44,14.69-.1,.23-.22,.31-.46,.3-1.59-.01-3.18,0-4.82,0,.51-1.17,1-2.29,1.49-3.41,1.73-3.94,3.46-7.88,5.18-11.83,.1-.24,.22-.32,.49-.32,1.48,.02,2.96,0,4.43,0h.37Z"/>
  <path class="cls-1" d="M61.55,13.87c-.31,.71-.58,1.36-.89,2-.04,.08-.23,.13-.35,.13-3.15,0-6.31,0-9.46,0h-1.61c.32-.72,.61-1.4,.92-2.07,.03-.07,.2-.11,.31-.11,1.53,0,3.07-.01,4.6,0,2.02,0,4.04,.03,6.06,.05,.12,0,.24,0,.43,0Z"/>
  <path class="cls-1" d="M67.37,.46c-.03,.1-.05,.19-.08,.26-.23,.54-.48,1.07-.71,1.62-.07,.17-.16,.25-.36,.25-3.61-.01-7.22-.01-10.83-.02-.06,0-.13,0-.25-.02,.29-.67,.56-1.31,.86-1.92,.05-.09,.24-.16,.37-.16,2.84,0,5.69,0,8.53,0h2.47Z"/>
  <path class="cls-1" d="M64.23,7.14c-.03,.09-.04,.17-.06,.23-.24,.56-.5,1.11-.73,1.68-.07,.18-.17,.22-.35,.22-3.55,0-7.11,0-10.66,0-.06,0-.13,0-.24-.02,.3-.68,.58-1.35,.88-1.99,.04-.07,.22-.11,.34-.11,1.77,0,3.53,0,5.3,0,1.71,0,3.42,0,5.13,0h.4Z"/>
  <path class="cls-1" d="M79.4,25.6c-.12,.39,0,.66,.38,.79,.23,.08,.48,.11,.72,.11,2.04,0,4.09,0,6.13,0,.21,0,.32-.06,.38-.27,.09-.33,.21-.65,.33-1.03h-.39c-1.53,0-3.07-.02-4.6,.01-.44,0-.75-.18-1.12-.46h7.27c-.23,.7-.46,1.4-.71,2.08-.03,.07-.21,.13-.33,.13-1.4,0-2.8,0-4.2,0-1.06,0-2.11,.02-3.17-.02-.44-.02-.9-.15-1.31-.32-.49-.21-.58-.54-.42-1.04,.13-.39,.28-.77,.39-1.17,.13-.45,.41-.75,.81-.96,.61-.33,1.27-.49,1.95-.49,2.33-.01,4.67,0,7,0,.05,0,.11,.01,.17,.02,0,.31-.09,.46-.44,.45-2.17-.02-4.33-.01-6.5,0-.24,0-.49,.01-.73,.05-.65,.11-1.14,.41-1.3,1.11-.08,.34-.22,.67-.32,1.01Z"/>
  <path class="cls-1" d="M59.54,23.82c-.37,.4-.21,.79,.32,.87,.22,.03,.44,.05,.66,.05,1.72,0,3.45,0,5.17,0,.38,0,.76,.03,1.13,.09,.34,.06,.7,.19,.77,.59,.06,.38-.11,.72-.4,.97-.44,.38-.98,.5-1.54,.55-.31,.03-.62,.03-.93,.03-2.22,0-4.45,0-6.67,0h-.39c0-.37,.14-.48,.48-.48,2.27,.02,4.53,.01,6.8,0,.32,0,.64-.03,.96-.09,.14-.02,.33-.1,.4-.21,.13-.2,.24-.46,.23-.68,0-.11-.31-.23-.5-.28-.18-.05-.37-.03-.56-.03-1.72,0-3.45,0-5.17,0-.4,0-.8-.05-1.19-.11-.35-.06-.7-.2-.76-.59-.06-.39,.08-.79,.42-.99,.36-.22,.78-.35,1.19-.47,.27-.08,.57-.07,.86-.07,2.33,0,4.67,0,7,0,.09,0,.17,0,.26,.01,.01,.34-.12,.46-.47,.46-2.19-.02-4.38-.01-6.57,0-.29,0-.58,0-.86,.07-.23,.05-.48,.16-.63,.33Z"/>
  <path class="cls-1" d="M40.28,24.45c-.12,.36-.25,.71-.36,1.07-.13,.45-.4,.79-.82,.95-.52,.2-1.07,.43-1.62,.45-1.8,.06-3.6,.05-5.4,.03-.27,0-.53-.22-.79-.34l.03-.11h.34c1.78,0,3.56,0,5.33,0,.26,0,.53-.02,.79-.07,.6-.12,1.03-.43,1.18-1.07,.08-.34,.22-.67,.33-1.01,.12-.39,.02-.65-.37-.79-.23-.08-.48-.12-.72-.12-2.08-.01-4.16,0-6.23-.01-.23,0-.3,.1-.36,.29-.32,.99-.67,1.98-.98,2.97-.07,.24-.18,.32-.42,.3-.21-.02-.42,0-.69,0,.36-1.09,.71-2.14,1.05-3.18q.28-.84,1.16-.84c2.19,0,4.38-.01,6.57,.01,.48,0,.98,.1,1.43,.26,.64,.22,.77,.59,.56,1.23Z"/>
  <path class="cls-1" d="M103.93,22.95c-.04,.15-.07,.26-.1,.38-.37,1.12-.75,2.23-1.11,3.35-.07,.23-.19,.29-.42,.3-.53,.03-.99-.1-1.46-.35-1.82-.99-3.67-1.95-5.5-2.92-.11-.06-.22-.11-.34-.17-.34,1.02-.69,2.01-.99,3.02-.1,.35-.27,.46-.61,.42-.16-.02-.33,0-.52,0,.03-.12,.04-.2,.06-.28,.38-1.15,.77-2.29,1.14-3.44,.07-.21,.15-.29,.39-.3,.53-.03,.99,.1,1.46,.35,1.83,1,3.69,1.96,5.53,2.94,.1,.05,.2,.1,.33,.17,.35-1.04,.7-2.03,1.01-3.04,.1-.34,.26-.47,.61-.42,.16,.02,.33,0,.54,0Z"/>
  <path class="cls-1" d="M45.77,25.54c-.08,.31-.19,.61-.3,.96h7.33c0,.36-.13,.48-.47,.48-2.54-.01-5.09,0-7.63,0h-.39c.24-.73,.46-1.41,.69-2.07,.02-.07,.14-.15,.21-.15,2.72,0,5.44,0,8.16,0,.01,0,.02,0,.07,.03-.05,.14-.1,.28-.16,.43h-1.61c-1.81,0-3.62,0-5.43,0-.28,0-.39,.09-.46,.34Z"/>
  <path class="cls-1" d="M74.39,22.96c-.04,.15-.06,.27-.1,.38-.37,1.12-.75,2.23-1.11,3.35-.07,.22-.16,.31-.39,.29-.22-.02-.44,0-.72,0,.44-1.33,.86-2.59,1.29-3.85,.02-.07,.13-.15,.2-.16,.26-.02,.53,0,.83,0Z"/>
  <path class="cls-1" d="M54,22.97c-.05,.16-.09,.29-.13,.43h-8.39c.05-.16,.1-.3,.15-.43h8.38Z"/>
</svg>