<?xml version="1.0" encoding="UTF-8"?>
<svg id="Camada_1" data-name="Camada 1" xmlns="http://www.w3.org/2000/svg" xmlns:xlink="http://www.w3.org/1999/xlink" viewBox="0 0 142.45 142.45">
  <defs>
    <style>
      .cls-1 {
        fill: #fff;
      }

      .cls-2 {
        fill: url(#Gradiente_sem_nome_3);
      }
    </style>
    <linearGradient id="Gradiente_sem_nome_3" data-name="Gradiente sem nome 3" x1="0" y1="71.22" x2="142.45" y2="71.22" gradientUnits="userSpaceOnUse">
      <stop offset="0" stop-color="#650ff1"/>
      <stop offset="1" stop-color="#2b1ff2"/>
    </linearGradient>
  </defs>
  <circle class="cls-2" cx="71.22" cy="71.22" r="71.22"/>
  <path class="cls-1" d="M112.97,38.89c-.91,2.09-1.78,4.08-2.65,6.07-8.31,18.93-16.64,37.85-24.9,56.8-.63,1.44-1.36,2-2.97,1.97-5.68-.1-11.36-.04-17.04-.04h-2.22c4.6-10.49,9.08-20.71,13.67-31.2-4.07,0-7.83-.05-11.58,.07-.45,.02-1.03,.9-1.29,1.5-4,9.04-8.03,18.07-11.89,27.17-.8,1.88-1.72,2.58-3.81,2.52-5.56-.18-11.13-.06-16.7-.06h-2.12c3.07-6.99,5.99-13.67,8.93-20.35,6.28-14.3,12.58-28.59,18.81-42.91,.55-1.26,1.15-1.75,2.57-1.74,6.46,.08,12.93,.04,19.68,.04-3.63,8.28-7.17,16.37-10.86,24.79,2.22,0,4.2,.02,6.18,0,1.96-.02,4.39,.62,5.76-.3,1.43-.97,1.88-3.43,2.7-5.27,2.64-5.96,5.22-11.94,7.9-17.88,.26-.57,1.04-1.27,1.59-1.28,6.47-.09,12.94-.05,19.4-.05,.21,0,.42,.07,.83,.15Z"/>
</svg>